<svg width="70" height="79" viewBox="0 0 70 79" fill="none" xmlns="http://www.w3.org/2000/svg">
<path d="M6.8 1.88656C0.666667 5.21989 0.133333 8.28656 0 35.7532C0 71.7532 0.133333 72.0199 26.6667 72.0199H42.6667V68.0199C42.6667 65.8866 41.4667 62.1532 40 59.7532C36.6667 54.1532 36.6667 47.2199 40 41.6199C43.2 36.4199 50 32.0199 55.0667 32.0199H58.6667V21.3532C58.6667 9.21989 56.8 4.01989 51.3333 1.61989C46.4 -0.646773 11.0667 -0.51344 6.8 1.88656ZM47.3333 16.0199C47.3333 17.6199 44.4 18.0199 30.1333 18.4199C13.4667 18.8199 9.33333 18.0199 11.3333 14.8199C11.8667 13.7532 17.8667 13.3532 29.7333 13.6199C44.2667 14.0199 47.3333 14.4199 47.3333 16.0199ZM38 29.3532C38 30.9532 35.6 31.4866 25.4667 31.7532C13.2 32.1532 9.46667 31.0866 11.3333 28.1532C11.8667 27.0866 16.6667 26.6866 25.0667 26.9532C35.4667 27.2199 38 27.7532 38 29.3532ZM30 42.6866C30 44.1532 28 44.8199 21.4667 45.0866C12.9333 45.4866 9.6 44.2866 11.3333 41.3532C11.8667 40.4199 15.6 40.0199 21.0667 40.2866C28 40.5532 30 41.0866 30 42.6866ZM29.3333 56.0199C29.3333 58.4199 28.4 58.6866 20.8 58.6866C16 58.6866 11.7333 58.0199 11.3333 57.3532C9.6 54.5532 12.4 53.3532 20.8 53.3532C28.4 53.3532 29.3333 53.6199 29.3333 56.0199Z" fill="white"/>
<path d="M49.4667 39.2199C37.8667 45.6199 42.8 64.0199 56 64.0199C62.8 64.0199 69.3333 57.4866 69.3333 50.8199C69.3333 40.8199 58.2667 34.2866 49.4667 39.2199Z" fill="white"/>
<path d="M48.2667 74.0199C48.6667 78.5532 49.0667 79.2199 51.3334 78.9532C52.8 78.6866 54.9334 78.5532 56 78.5532C57.0667 78.5532 59.2 78.6866 60.6667 78.9532C62.9334 79.2199 63.3334 78.5532 63.7334 74.0199L64.1334 68.6866H56H47.8667L48.2667 74.0199Z" fill="white"/>
</svg>
