<svg width="43" height="43" viewBox="0 0 43 43" fill="none" xmlns="http://www.w3.org/2000/svg">
<path d="M15.3667 1.7C8.10002 4.3 3.50002 9.16666 1.36669 16.4333C-0.566647 23.2333 1.63335 31.6333 6.83335 36.8333C14.9667 44.9 28.7 44.9 36.8334 36.8333C42.9 30.7 44.7 20.7667 41.1 13.1C36.5 3.36666 25.0334 -1.76667 15.3667 1.7ZM25.7667 4.56666C37.7 7.1 43.5667 22.0333 36.4334 31.7667C28.9667 42.1667 14.7 42.1667 7.23335 31.7667C0.30002 22.3 5.56669 7.83333 17.0334 4.76666C21.0334 3.7 21.7 3.7 25.7667 4.56666Z" fill="black"/>
<path d="M25.0334 19.6333L18.5667 26.1L15.2334 22.9667C11.9 19.8333 9.83337 19.3667 9.83337 21.8333C9.83337 22.9667 17.1667 30.5 18.3 30.5C18.6334 30.5 22.3 27.1 26.4334 22.9C31.7667 17.5667 33.9 14.9667 33.6334 14.2333C33.3667 13.6333 32.8334 13.1667 32.3667 13.1667C31.9 13.1667 28.5667 16.1 25.0334 19.6333Z" fill="black"/>
</svg>
