<svg width="70" height="70" viewBox="0 0 70 70" fill="none" xmlns="http://www.w3.org/2000/svg">
<path d="M27.8812 -0.0355377C17.8802 2.07692 7.54583 10.7491 2.98982 20.9779C-0.121606 28.0935 -0.121606 40.7683 2.98982 47.884C13.5464 71.6769 44.2162 76.9025 61.4401 57.8904C66.5517 52.2201 68.3297 48.6622 69.9965 40.7683C73.9969 21.0891 59.3288 1.52101 38.8823 -0.369084C35.5486 -0.70263 30.5481 -0.591448 27.8812 -0.0355377ZM43.3272 12.1945C46.772 14.5293 49.4389 21.2002 48.4388 24.9804C47.9943 26.537 46.3275 29.4277 44.5495 31.429C41.6604 34.5421 40.5491 34.9868 35.7709 34.9868C31.7705 34.9868 29.548 34.3197 27.7701 32.7632C23.8808 29.2054 21.9917 24.5357 22.6585 20.5332C24.5475 10.6379 35.1041 6.30184 43.3272 12.1945ZM27.3256 37.2105C31.4371 39.3229 39.6602 39.3229 43.7717 37.2105C45.5496 36.2098 47.9943 35.7651 49.1055 36.2098C51.7725 36.9881 57.7731 46.2162 57.7731 49.4405C57.7731 55.1108 45.4385 62.2265 35.5486 62.2265C25.7699 62.2265 13.3242 55.1108 13.3242 49.6629C13.3242 46.7721 18.3247 38.2111 20.8805 36.7657C23.4363 35.2092 23.6586 35.3204 27.3256 37.2105Z" fill="white"/>
</svg>
