<svg width="60" height="61" viewBox="0 0 60 61" fill="none" xmlns="http://www.w3.org/2000/svg">
<path d="M21.5625 2.57625C20.5312 3.80989 19.6875 5.82859 19.6875 6.95008C19.6875 8.85662 18.8438 9.08092 11.625 9.41737C4.5 9.86597 3.375 10.2024 1.78125 12.5576C0.65625 14.2398 0 16.9314 0 19.9594V24.894L15 30.8379L30 36.7819L45 30.8379L60 24.894V19.9594C60 16.9314 59.3438 14.2398 58.2188 12.5576C56.625 10.2024 55.5 9.86597 48.375 9.41737C41.1562 9.08092 40.3125 8.85662 40.3125 6.95008C40.3125 2.4641 37.0312 0.333259 30 0.333259C24.6562 0.333259 23.0625 0.781857 21.5625 2.57625ZM34.6875 8.18373C34.6875 8.74447 32.625 9.30522 30 9.30522C27.4688 9.30522 25.3125 8.74447 25.3125 8.18373C25.3125 7.51083 27.4688 7.06223 30 7.06223C32.625 7.06223 34.6875 7.51083 34.6875 8.18373Z" fill="white"/>
<path d="M0 42.165C0 53.1557 0.28125 55.3987 1.78125 57.6417L3.5625 60.3333H30H56.4375L58.2188 57.6417C59.7188 55.3987 60 53.1557 60 42.165C60 32.2959 59.7188 29.38 58.875 29.8286C58.2188 30.0529 51.4688 32.7445 43.875 35.7725L30 41.1557L16.2188 35.7725C8.53125 32.7445 1.78125 30.0529 1.21875 29.8286C0.28125 29.38 0 32.2959 0 42.165Z" fill="white"/>
</svg>
